<?xml version="1.0" standalone="no"?>
<!DOCTYPE svg PUBLIC "-//W3C//DTD SVG 20010904//EN"
 "http://www.w3.org/TR/2001/REC-SVG-20010904/DTD/svg10.dtd">
<svg version="1.0" xmlns="http://www.w3.org/2000/svg"
 width="2288.000000pt" height="2288.000000pt" viewBox="0 0 2288.000000 2288.000000"
 preserveAspectRatio="xMidYMid meet">
<metadata>
Created by potrace 1.14, written by Peter Selinger 2001-2017
</metadata>
<g transform="translate(0.000000,2288.000000) scale(0.100000,-0.100000)"
fill="#000000" stroke="none">
<path d="M11038 22875 c-2 -2 -79 -6 -173 -9 -93 -4 -183 -9 -200 -11 -27 -4
-142 -13 -255 -20 -25 -2 -70 -6 -100 -10 -30 -3 -73 -8 -95 -11 -84 -9 -171
-19 -280 -34 -38 -5 -90 -12 -115 -15 -25 -3 -126 -19 -225 -35 -200 -33 -207
-34 -320 -56 -44 -8 -91 -17 -105 -20 -63 -12 -521 -116 -570 -130 -30 -8 -62
-16 -70 -18 -216 -52 -884 -260 -995 -310 -16 -8 -48 -19 -70 -26 -47 -15
-410 -158 -475 -188 -25 -11 -74 -32 -110 -47 -36 -15 -69 -31 -75 -36 -5 -5
-14 -9 -21 -9 -11 0 -167 -72 -379 -175 -232 -113 -762 -404 -900 -494 -42
-27 -50 -32 -125 -77 -214 -129 -781 -524 -935 -651 -5 -5 -30 -24 -55 -43
-25 -19 -47 -37 -50 -40 -3 -3 -27 -23 -55 -44 -52 -41 -216 -177 -225 -186
-3 -3 -32 -28 -65 -55 -33 -28 -62 -52 -65 -55 -13 -13 -124 -113 -200 -180
-85 -75 -611 -597 -705 -700 -28 -30 -84 -93 -125 -140 -41 -47 -77 -87 -80
-90 -3 -3 -55 -63 -116 -135 -180 -212 -363 -447 -569 -730 -54 -75 -264 -385
-314 -465 -19 -30 -58 -91 -87 -135 -234 -361 -569 -995 -769 -1455 -196 -450
-339 -839 -473 -1280 -57 -186 -74 -246 -79 -275 -2 -11 -8 -31 -13 -45 -9
-24 -96 -365 -105 -412 -3 -13 -7 -34 -10 -48 -3 -14 -7 -34 -10 -45 -2 -11
-15 -72 -30 -135 -29 -129 -28 -125 -60 -310 -13 -74 -30 -173 -39 -220 -8
-47 -17 -107 -21 -135 -3 -27 -8 -61 -10 -75 -2 -14 -9 -63 -15 -110 -6 -47
-13 -96 -15 -110 -8 -53 -44 -425 -51 -520 -2 -41 -7 -104 -9 -140 -26 -347
-26 -1203 0 -1505 2 -22 6 -80 9 -130 4 -49 8 -103 10 -120 2 -16 7 -68 11
-115 4 -47 8 -96 10 -110 7 -60 15 -128 20 -170 6 -55 25 -196 30 -230 10 -62
25 -158 30 -195 4 -22 8 -47 10 -55 2 -8 7 -35 10 -60 5 -40 11 -76 30 -175 3
-16 9 -43 12 -60 7 -40 30 -155 36 -180 3 -11 12 -56 22 -100 19 -92 102 -435
116 -480 5 -16 32 -111 60 -210 97 -346 271 -856 364 -1070 7 -16 31 -75 53
-130 202 -505 537 -1162 851 -1668 206 -333 435 -663 670 -967 92 -119 276
-346 291 -360 3 -3 29 -34 59 -70 29 -36 85 -101 125 -144 39 -44 81 -91 94
-105 260 -288 648 -672 937 -926 176 -155 499 -419 630 -516 33 -24 62 -47 65
-50 9 -11 295 -215 435 -311 113 -77 395 -258 490 -315 179 -107 247 -146 395
-229 151 -84 680 -354 694 -354 2 0 51 -22 108 -48 57 -27 193 -86 303 -131
110 -46 214 -90 232 -97 18 -8 67 -27 110 -43 281 -103 390 -142 478 -170 55
-18 109 -36 120 -41 11 -5 29 -11 40 -13 11 -3 74 -22 140 -42 139 -42 237
-71 315 -92 80 -21 401 -101 430 -107 14 -3 68 -15 120 -27 52 -11 102 -22
110 -24 29 -4 105 -19 153 -30 12 -3 38 -8 57 -11 19 -4 44 -8 55 -11 11 -2
36 -6 55 -9 19 -2 49 -8 65 -11 17 -3 39 -7 50 -9 11 -2 47 -7 80 -13 33 -5
78 -12 100 -16 22 -3 54 -7 70 -10 17 -3 46 -7 65 -9 65 -8 135 -18 157 -21
12 -2 57 -7 100 -10 43 -4 80 -9 83 -10 7 -4 136 -16 320 -30 52 -3 109 -8
125 -10 236 -27 1369 -27 1630 -1 17 2 66 6 110 10 44 4 101 9 126 11 25 3 70
7 100 10 29 3 69 7 89 9 19 3 60 8 90 11 30 4 66 8 80 10 14 2 54 7 90 10 36
4 74 9 84 11 11 2 54 8 95 14 42 6 87 12 101 15 14 2 79 13 145 25 66 11 134
22 150 25 17 3 84 16 150 30 66 13 131 27 145 29 54 11 85 17 149 32 36 9 74
17 84 20 10 2 27 6 37 9 10 3 27 7 37 9 195 39 754 204 1088 321 88 31 172 60
186 65 15 4 42 15 60 23 19 8 79 32 134 52 109 41 180 70 207 85 10 6 22 10
28 10 5 0 33 11 62 24 29 14 87 39 128 56 316 135 1008 484 1132 571 14 11 29
19 32 19 7 0 260 153 411 250 108 69 212 138 389 260 208 143 619 459 816 626
78 67 256 222 319 279 232 210 571 548 797 796 118 130 364 418 439 514 17 22
51 64 76 95 40 49 185 241 335 445 108 147 351 516 449 683 6 9 22 35 36 57
118 182 385 682 543 1015 135 286 316 720 405 975 24 66 47 129 52 140 18 42
183 560 204 645 2 8 18 65 35 125 16 61 32 119 35 130 2 11 11 47 20 80 8 33
17 69 19 80 2 11 14 61 26 110 12 50 25 110 30 135 5 25 11 54 14 65 13 58 35
164 40 195 3 19 12 69 21 110 9 41 18 91 21 110 4 32 11 76 20 125 9 55 54
367 59 415 8 79 15 140 20 180 9 74 14 118 20 195 4 44 9 100 11 125 5 46 7
74 21 310 16 276 9 1246 -12 1430 -2 19 -6 81 -10 137 -3 55 -8 112 -10 125
-2 12 -6 59 -10 103 -4 44 -8 89 -10 100 -2 11 -6 47 -10 80 -3 33 -9 78 -11
100 -6 51 -53 380 -60 420 -3 17 -14 82 -25 145 -11 63 -34 180 -50 260 -17
80 -32 156 -35 170 -27 138 -136 563 -197 775 -68 231 -163 514 -276 824 -131
357 -370 885 -588 1301 -102 195 -326 585 -408 710 -12 19 -75 116 -140 215
-65 99 -177 262 -249 363 -72 101 -138 193 -146 206 -15 23 -80 107 -90 116
-3 3 -34 43 -69 90 -151 198 -447 545 -671 784 -82 88 -403 409 -501 501 -317
299 -781 685 -1090 907 -13 10 -60 44 -104 76 -180 131 -406 281 -645 429 -58
36 -126 79 -151 94 -25 16 -49 29 -53 29 -5 0 -20 8 -34 19 -94 66 -641 354
-927 487 -244 115 -615 270 -845 354 -63 23 -135 50 -160 60 -128 52 -699 228
-920 285 -36 9 -72 19 -80 21 -154 40 -540 126 -715 159 -107 19 -205 37 -235
41 -19 2 -57 8 -85 14 -54 10 -101 17 -168 25 -23 3 -52 7 -64 9 -12 3 -53 8
-90 11 -37 4 -75 8 -83 10 -14 4 -43 7 -160 19 -149 16 -299 28 -505 42 -55 3
-120 8 -145 11 -49 4 -987 12 -992 8z"/>
</g>
</svg>
